<?xml version="1.0" encoding="UTF-8"?>
<svg width="100" height="100" viewBox="0 0 100 100" xmlns="http://www.w3.org/2000/svg">
  <g fill="#FFFFFF">
    <!-- Dog silhouette -->
    <path d="M35 65c0 0-15-10-15-25c0-15 10-20 20-20c10 0 15 5 15 15c0 10-5 20-10 25c-5 5-10 5-10 5z"/>
    <!-- Cat silhouette -->
    <path d="M65 65c0 0 15-10 15-25c0-15-10-20-20-20c-10 0-15 5-15 15c0 10 5 20 10 25c5 5 10 5 10 5z"/>
    <!-- Cross symbol -->
    <path d="M55 40h-10v-10h10v10zM45 50h10v10h-10z"/>
  </g>
</svg> 